# xmcd
#
# Track frame offsets: 
#        150
#        9915
#        21958
#        38405
#        50403
#        63345
#        78769
#        94808
#        104697
#        116343
#        127888
#        145480
#        161437
#        171048
#        188777
#        203063
#        209175
#        221230
#
# Disc length: 3185 seconds
#
# Revision: 0
# Processed by: cddbd v1.5.1PL0 Copyright (c) Steve Scherf et al.
# Submitted via: ExactAudioCopy v0.95a5
#
DISCID=f70c6f12
DTITLE=Лев Барашков - Золотая мелодия. Дорога судьбы
DYEAR=2005
DGENRE=Retro
TTITLE0=Счастливый четверг
TTITLE1=Ты одна ходишь рядом
TTITLE2=Усы
TTITLE3=Для жён настоящих мужчин
TTITLE4=Дом за углом
TTITLE5=Звезда рыбака
TTITLE6=Я помню
TTITLE7=Ты не верь сатане
TTITLE8=Горячий лёд
TTITLE9=Последний пас
TTITLE10=Это жизнь
TTITLE11=Звёзды Мехико
TTITLE12=Разве тот мужчина
TTITLE13=Песня из кф 'Белое солнце пустыни'
TTITLE14=Милая моя
TTITLE15=У развилочки
TTITLE16=Весёлая кадриль
TTITLE17=Дорога судьбы
EXTD=
EXTT0=
EXTT1=
EXTT2=
EXTT3=
EXTT4=
EXTT5=
EXTT6=
EXTT7=
EXTT8=
EXTT9=
EXTT10=
EXTT11=
EXTT12=
EXTT13=
EXTT14=
EXTT15=
EXTT16=
EXTT17=
PLAYORDER=
